<?xml version="1.0" encoding="utf-8"?>
<!-- Svg Vector Icons : http://www.onlinewebfonts.com/icon -->
<!DOCTYPE svg PUBLIC "-//W3C//DTD SVG 1.1//EN" "http://www.w3.org/Graphics/SVG/1.1/DTD/svg11.dtd">
<svg version="1.1" xmlns="http://www.w3.org/2000/svg" xmlns:xlink="http://www.w3.org/1999/xlink" x="0px" y="0px" viewBox="0 0 256 256" enable-background="new 0 0 256 256" xml:space="preserve">
<metadata> Svg Vector Icons : http://www.onlinewebfonts.com/icon </metadata>
<g><g><path fill="#000000" d="M128,10C62.8,10,10,62.8,10,128c0,65.2,52.8,118,118,118c65.2,0,118-52.8,118-118C246,62.8,193.2,10,128,10z M123.6,117.6c0,5.3-5.1,9.8-12.5,12.2v60.5c0,7.7-5,13.9-11.1,13.9c-6.2,0-11.1-6.2-11.1-13.9v-60.4c-7.4-2.3-12.6-6.9-12.6-12.2V72.7h11.2v37.9c0,4,1.8,4.7,4.1,4.7c2.2,0,4.1-0.7,4.1-4.7V72.7h8.8v37.9c0,4,1.8,4.7,4.1,4.7c2.2,0,4-0.7,4-4.7V72.7h11.2V117.6z M179.8,190.3c0,7.7-5,13.9-11.2,13.9c-6.2,0-11.2-6.2-11.2-13.9v-26c-7.4-2.4-12.6-6.9-12.6-12.2V72.7h12.6h13.2h9.1L179.8,190.3L179.8,190.3z"/></g></g>
</svg>